{"accessors":[{"bufferView":2,"componentType":5126,"count":7466,"max":[0.7381049990653992,0.16356199979782104,1.764312982559204],"min":[-0.7381049990653992,-0.17834800481796265,-0.005543000064790249],"type":"VEC3"},{"bufferView":2,"byteOffset":89592,"componentType":5126,"count":7466,"max":[0.9998908638954163,0.9999422430992126,0.9999585747718811],"min":[-0.9998908638954163,-0.9999949932098389,-0.9999982118606567],"type":"VEC3"},{"bufferView":3,"componentType":5126,"count":7466,"max":[0.9998540878295898,0.9999982118606567,0.9999949336051941,1],"min":[-0.9998540282249451,-0.999867856502533,-0.9999423027038574,-1],"type":"VEC4"},{"bufferView":1,"componentType":5126,"count":7466,"max":[0.989205002784729,0.9965370297431946],"min":[0.008647999726235867,0.0009929999941959977],"type":"VEC2"},{"bufferView":0,"componentType":5125,"count":31044,"max":[7465],"min":[0],"type":"SCALAR"}],"asset":{"extras":{"author":"iqbalmulyawan (https://sketchfab.com/Iqbal.Mulyawan.Putera)","license":"CC-BY-4.0 (http://creativecommons.org/licenses/by/4.0/)","source":"https://sketchfab.com/models/406d19deffeb4963b3d0f50e420b5ba2","title":"The Amazing Spiderman"},"generator":"Sketchfab-3.18.6","version":"2.0"},"bufferViews":[{"buffer":0,"byteLength":124176,"byteOffset":0,"name":"floatBufferViews","target":34963},{"buffer":0,"byteLength":59728,"byteOffset":124176,"byteStride":8,"name":"floatBufferViews","target":34962},{"buffer":0,"byteLength":179184,"byteOffset":183904,"byteStride":12,"name":"floatBufferViews","target":34962},{"buffer":0,"byteLength":119456,"byteOffset":363088,"byteStride":16,"name":"floatBufferViews","target":34962}],"buffers":[{"byteLength":482544,"uri":"data:application/octet-stream;base64,"}],"extensionsUsed":["KHR_materials_unlit"],"images":[{"uri":"data:application/octet-stream;base64,"}],"materials":[{"doubleSided":true,"emissiveFactor":[0,0,0],"extensions":{"KHR_materials_unlit":{}},"name":"CoC_iOS_HER_PPA_SEN_B","pbrMetallicRoughness":{"baseColorFactor":[1,1,1,1],"baseColorTexture":{"index":0,"texCoord":0},"metallicFactor":0,"roughnessFactor":1}}],"meshes":[{"primitives":[{"attributes":{"NORMAL":1,"POSITION":0,"TANGENT":2,"TEXCOORD_0":3},"indices":4,"material":0,"mode":4}]}],"nodes":[{"children":[1],"name":"RootNode (gltf orientation matrix)","rotation":[-0.7071067811865475,0,0,0.7071067811865476]},{"children":[2],"name":"RootNode (model correction matrix)"},{"children":[3],"name":"M-CoC_iOS_HERO_Peter_Parker_Spider-Man_Stark_Enhanced.obj.cleaner.materialmerger.gles"},{"mesh":0,"name":""}],"samplers":[{"magFilter":9729,"minFilter":9987,"wrapS":10497,"wrapT":10497}],"scene":0,"scenes":[{"name":"OSG_Scene","nodes":[0]}],"textures":[{"sampler":0,"source":0}]}